<?xml version="1.0" standalone="no"?>
<!DOCTYPE svg PUBLIC "-//W3C/DTD SVG 1.1//EN"
  "http://www.w3.org/Graphics/SVG/1.1/DTD/svg11.dtd">
<svg version="1.1"
     baseProfile="full"
     width="1040" height="1240"
     xmlns="http://www.w3.org/2000/svg"
     xmlns:xlink="http://www.w3.org/1999/xlink">
  <style type="text/css">
    <![CDATA[

      .arena-wall {
          fill: none;
          stroke: #555;
          stroke-width: .02;
      }

      .platform {
          fill: #eee;
          stroke: #777;
          stroke-width: .02;
      }

      #robot {
          fill: green;
          fill-opacity: 1;
          stroke: black;
          stroke-width: 0.02;
      }

      .corner {
          fill-opacity: 0.2;
      }
      .corner-0 {
          fill: #00ff00;
      }
      .corner-1 {
          fill: #ff6600;
      }
      .corner-2 {
          fill: #ff00ff;
      }
      .corner-3 {
          fill: #ffff00;
      }

      #token {
          fill: red;
          fill-opacity: 0.6;
          stroke: black;
          stroke-width: 0.005;
      }

      .starting-area {
          stroke: #333;
          stroke-width: 0.02;
          /*stroke-dasharray: 0.14142135, 0.14142135;*/
          stroke-dasharray: 0.08 0.08;
          stroke-dashoffset: -50%;
      }

      .scoring-zone {
          stroke: #555;
          stroke-width: 0.02;
          stroke-dasharray: 0.08 0.08;
          stroke-dashoffset: -50%;
          fill: none;
      }

      .dimension line {
        stroke: #666;
        stroke-width: 0.005;
        marker-start: url(#dimension-arrow-head-start);
        marker-end: url(#dimension-arrow-head-end);
      }

      .dimension text {
        fill: #666;
        font-size: 0.175px;
      }
      .dimension text.above {
        text-anchor: middle;
      }
      .dimension text.left-rotated {
        text-anchor: middle;
        transform: rotate(-90deg);
      }
      .dimension text.left {
        text-anchor: end;
        dominant-baseline: middle;
      }
      .dimension text.right {
        text-anchor: start;
        dominant-baseline: middle;
      }

      .dimension-arrow-head {
        fill: #666;
      }

      .dimension-guide {
        stroke: #666;
        stroke-width: 0.01;
        stroke-dasharray: 0.0025 0.04;
        stroke-linecap: round;
        fill: none;
      }

      .legend-label {
        font-size: 0.2px;
        text-anchor: start;
        dominant-baseline: middle;
      }

    ]]>
  </style>
  <!-- common patterns -->
  <defs>
    <rect width="0.35" height="0.4"
          x="-0.175" y="-0.25"
          id="robot"/>
    <g id="starting-area">
      <rect width="1"
            height="1"
            x="0"
            y="0"
            class="starting-area"/>
      <g transform="translate(0.5 0.5) rotate(-45)">
        <use xlink:href="#robot"/>
      </g>
    </g>
    <rect width="0.25"
          height="0.25"
          x="-0.125"
          y="-0.125"
          id="token"/>
    <g id="tokens">
      <use xlink:href="#token" transform="translate(0.7 3)"/>
      <use xlink:href="#token" transform="translate(0.9 2.1)"/>
      <use xlink:href="#token" transform="translate(1.4 1.4)"/>
      <use xlink:href="#token" transform="translate(2.1 0.9)"/>
      <use xlink:href="#token" transform="translate(3 0.7)"/>
    </g>
    <g id="token-dimensions" transform="translate(8.4 8.4)">
      <!-- nearest the corner -->
      <g class="dimension" transform="translate(-0.7 -1.4) translate(0 -0.2)">
        <line x1="-0.7" y1="0" x2="0.7" y2="0"/>
        <text x="0" y="-0.1" class="above">1400±20mm</text>
      </g>
      <g class="dimension" transform="translate(-1.4 -0.7) translate(0.2 0)">
        <line x1="0" y1="0.7" x2="0" y2="-0.7"/>
        <text x="0" y="-0.45" class="right">1400±20mm</text>
      </g>
      <!-- heading leftwards -->
      <line x1="0" y1="0.1" x2="0" y2="-0.9" class="dimension-guide" transform="translate(-2.1 0)"/>
      <g class="dimension" transform="translate(-1.05 0.1)">
        <line x1="-1.05" y1="0" x2="1.05" y2="0"/>
        <text x="0" y="0.2" class="above">2100±20mm</text>
      </g>
      <g class="dimension" transform="translate(-2.1 -0.45) translate(-0.2 0)">
        <line x1="0" y1="0.45" x2="0" y2="-0.45"/>
        <text x="0" y="-0.5" class="left">900±20mm</text>
      </g>
      <line x1="0" y1="0.45" x2="0" y2="-0.7" class="dimension-guide" transform="translate(-3 0)"/>
      <g class="dimension" transform="translate(-1.5 0.45)">
        <line x1="-1.5" y1="0" x2="1.5" y2="0"/>
        <text x="0" y="0.2" class="above">3000±20mm</text>
      </g>
      <g class="dimension" transform="translate(-3 -0.35) translate(-0.2 0)">
        <line x1="0" y1="0.35" x2="0" y2="-0.35"/>
        <text x="-0.05" y="0" class="left">700±20mm</text>
      </g>
      <!-- heading upwards -->
      <line x1="0.1" y1="0" x2="-0.9" y2="0" class="dimension-guide" transform="translate(0 -2.1)"/>
      <g class="dimension" transform="translate(0.1 -1.05)">
        <line x1="0" y1="-1.05" x2="0" y2="1.05"/>
        <text x="0" y="-0.075" class="left-rotated" transform="rotate(90)">2100±20mm</text>
      </g>
      <g class="dimension" transform="translate(-0.45 -2.1) translate(0 -0.2)">
        <line x1="0.45" y1="0" x2="-0.45" y2="0"/>
        <text x="-0.1" y="-0.1" class="above">900±20mm</text>
      </g>
      <line x1="0.45" y1="0" x2="-0.7" y2="0" class="dimension-guide" transform="translate(0 -3)"/>
      <g class="dimension" transform="translate(0.45 -1.5)">
        <line x1="0" y1="-1.5" x2="0" y2="1.5"/>
        <text x="0" y="-0.075" class="left-rotated" transform="rotate(90)">3000±20mm</text>
      </g>
      <g class="dimension" transform="translate(-0.35 -3) translate(0 -0.2)">
        <line x1="0.35" y1="0" x2="-0.35" y2="0"/>
        <text x="-0.2" y="-0.1" class="above">700±20mm</text>
      </g>
    </g>
    <rect width="1.22"
          height="1.22"
          y="-0.61"
          id="side-platform" class="platform"/>
    <rect width="2.4"
          height="2.4"
          x="-2.4"
          y="0"
          id="scoring-zone-background"/>
    <g id="scoring-zones">
      <use class="corner corner-0" xlink:href="#scoring-zone-background"/>
      <use class="corner corner-1" xlink:href="#scoring-zone-background" transform="rotate(90)"/>
      <use class="corner corner-2" xlink:href="#scoring-zone-background" transform="rotate(180)"/>
      <use class="corner corner-3" xlink:href="#scoring-zone-background" transform="rotate(270)"/>
      <!-- platform -->
      <rect width="2.44"
            height="2.44"
            x="-1.22"
            y="-1.22"
            id="platform" class="platform"/>
      <g class="dimension" transform="translate(0 -1.3)">
        <line x1="-1.2" y1="0" x2="1.2" y2="0"/>
        <text x="0.05" y="-0.075" class="above">2400±100mm</text>
      </g>
      <g class="dimension" transform="translate(-1.3 0)">
        <line x1="0" y1="-1.2" x2="0" y2="1.2"/>
        <text x="0.1" y="-0.075" class="above">2400±100mm</text>
      </g>
      <g class="dimension" transform="translate(0 1.3)">
        <line x1="1.2" y1="0" x2="0" y2="0"/>
        <text x="0.6" y="0.2" class="above">1200±100mm</text>
      </g>
      <g class="dimension" transform="translate(1.3 0)">
        <line x1="0" y1="1.2" x2="0" y2="0"/>
        <text x="0" y="0.6" class="above">1200±100mm</text>
      </g>
      <!-- scoring zones -->
      <rect width="4.8"
            height="4.8"
            x="-2.4"
            y="-2.4"
            class="scoring-zone"/>
      <line y1="-2.4"
            y2="2.4"
            class="scoring-zone"/>
      <line x1="-2.4"
            x2="2.4"
            class="scoring-zone"/>
      <g class="dimension" transform="translate(0 2.4) translate(1.2 0.1)">
        <line x1="-1.2" y1="0" x2="1.2" y2="0"/>
        <text x="0.05" y="0.2" class="above">2400±100mm</text>
      </g>
      <g class="dimension" transform="translate(2.4 0) translate(0.1 1.2)">
        <line x1="0" y1="-1.2" x2="0" y2="1.2"/>
        <text x="0.1" y="-0.075" class="above">2400±100mm</text>
      </g>
    </g>
    <!-- arrow heads for dimensions -->
    <g id="dimension-arrow-head" transform="scale(0.05)">
      <path d="M0,0 L1,1 L1,-1 L0,0" class="dimension-arrow-head"/>
    </g>
    <marker id="dimension-arrow-head-start" orient="auto" markerWidth="1" markerHeight="2" refX="0" refY="1" markerUnits="userSpaceOnUse">
      <use xlink:href="#dimension-arrow-head" transform="translate(0 1)"/>
    </marker>
    <marker id="dimension-arrow-head-end" orient="auto" markerWidth="1" markerHeight="2" refX="1" refY="1" markerUnits="userSpaceOnUse">
      <use xlink:href="#dimension-arrow-head" transform="translate(1 1) scale(-1 1)"/>
    </marker>
  </defs>
  <!-- white background -->
  <rect width="100%" height="100%" fill="white"/>
  <!-- transform for arena-space coordinates -->
  <g id="arena-space" transform="scale(100)">
    <g id="arena"
      transform="translate(1 1)">
      <!-- starting areas -->
      <use class="corner corner-0" xlink:href="#starting-area"/>
      <use class="corner corner-1" xlink:href="#starting-area" transform="rotate(90 4.2 4.2)"/>
      <use class="corner corner-2" xlink:href="#starting-area" transform="rotate(180 4.2 4.2)"/>
      <use class="corner corner-3" xlink:href="#starting-area" transform="rotate(270 4.2 4.2)"/>
      <g class="dimension" transform="translate(8.4 0) translate(-1 1.12)">
        <line x1="0" y1="0" x2="1" y2="0"/>
        <text x="0.4" y="0.2" class="above">1000±20mm</text>
      </g>
      <g class="dimension" transform="translate(8.4 0) translate(-1.12 0)">
        <line x1="0" y1="1" x2="0" y2="0"/>
        <text x="-0.05" y="0.55" class="left">1000±20mm</text>
      </g>
      <!-- raised areas -->
      <use xlink:href="#side-platform" transform="translate(0 4.2)"/>
      <use xlink:href="#side-platform" transform="rotate(90 4.2 4.2) translate(0 4.2)"/>
      <use xlink:href="#side-platform" transform="rotate(180 4.2 4.2) translate(0 4.2)"/>
      <use xlink:href="#side-platform" transform="rotate(270 4.2 4.2) translate(0 4.2)"/>
      <g class="dimension" transform="translate(8.4 4.2) translate(0 -0.7)">
        <line x1="-1.22" y1="0" x2="0" y2="0"/>
        <text x="-0.61" y="-0.1" class="above">1200±100mm</text>
      </g>
      <line x1="6.5" y1="4.2" x2="7.2" y2="4.2" class="dimension-guide"/>
      <g class="dimension" transform="translate(8.4 4.2) translate(-1.3 0)">
        <line x1="0" y1="0" x2="0" y2="-0.61"/>
        <text x="-0.2" y="-0.25" class="left-rotated">600±50mm</text>
      </g>
      <g class="dimension" transform="translate(8.4 4.2) translate(0.1 0)">
        <line x1="0" y1="0.61" x2="0" y2="-0.61"/>
        <text x="0.1" y="0" class="left-rotated">1200±100mm</text>
      </g>
      <!-- scoring zones -->
      <use xlink:href="#scoring-zones" transform="translate(4.2 4.2)"/>
      <g class="dimension" transform="translate(6.3 1.7)">
        <line x1="-2.1" y1="0" x2="2.1" y2="0"/>
        <text x="-0.5" y="-0.075" class="above">4200±100mm</text>
      </g>
      <g class="dimension" transform="translate(1.7 2.1)">
        <line x1="0" y1="-2.1" x2="0" y2="2.1"/>
        <text x="0" y="-0.075" class="left-rotated">4200±100mm</text>
      </g>
      <!-- tokens -->
      <use xlink:href="#tokens"/>
      <use xlink:href="#tokens" transform="rotate(90 4.2 4.2)"/>
      <use xlink:href="#tokens" transform="rotate(180 4.2 4.2)"/>
      <use xlink:href="#tokens" transform="rotate(270 4.2 4.2)"/>
      <use xlink:href="#token-dimensions"/>
      <!-- arena wall -->
      <rect width="8.4"
            height="8.4"
            x="0"
            y="0"
            class="arena-wall"/>
      <g class="dimension" transform="translate(4.2 -0.2)">
        <line x1="-4.2" y1="0" x2="4.2" y2="0"/>
        <text x="0" y="-0.075" class="above">8400±250mm</text>
      </g>
      <g class="dimension" transform="translate(-0.2 4.2)">
        <line x1="0" y1="-4.2" x2="0" y2="4.2"/>
        <text x="0.03" y="-0.075" class="left-rotated">8400±250mm</text>
      </g>
    </g>
    <g id="legend"
       transform="translate(2.2 10.8)">
      <g transform="translate(0 0)">
        <use fill="none" xlink:href="#starting-area" transform="scale(0.5) translate(-0.6 -0.6)"/>
        <text x="0.5" y="0" class="legend-label">Robot starting area</text>
      </g>
      <g transform="translate(0 0.75)">
        <use xlink:href="#token" transform="translate(0 -0.075)"/>
        <text x="0.5" y="0" class="legend-label">Token starting position</text>
      </g>
      <g transform="translate(4.2 0)">
        <use xlink:href="#platform" transform="scale(0.2) translate(-0.5 -0.5)"/>
        <text x="0.5" y="0" class="legend-label">Raised platform</text>
      </g>
      <g transform="translate(4.2 0.75)">
        <rect width="0.7"
              height="0.7"
              x="-0.55"
              y="-0.5"
              class="scoring-zone" transform="scale(0.5)"/>
        <text x="0.5" y="0" class="legend-label">Scoring zone</text>
      </g>
    </g>
  </g>
</svg>
